<svg xmlns="http://www.w3.org/2000/svg" xmlns:xlink="http://www.w3.org/1999/xlink" width="2000" zoomAndPan="magnify" viewBox="0 0 1500 1499.999933" height="2000" preserveAspectRatio="xMidYMid meet" version="1.0"><defs><g/><clipPath id="7720ca9c2f"><path d="M 215.253906 674.226562 L 318.476562 674.226562 L 318.476562 777.445312 L 215.253906 777.445312 Z M 215.253906 674.226562 " clip-rule="nonzero"/></clipPath><clipPath id="f415ccdd2e"><path d="M 266.867188 674.226562 C 238.363281 674.226562 215.253906 697.332031 215.253906 725.835938 C 215.253906 754.339844 238.363281 777.445312 266.867188 777.445312 C 295.371094 777.445312 318.476562 754.339844 318.476562 725.835938 C 318.476562 697.332031 295.371094 674.226562 266.867188 674.226562 Z M 266.867188 674.226562 " clip-rule="nonzero"/></clipPath><clipPath id="45f2e1896d"><path d="M 0.253906 0.226562 L 103.476562 0.226562 L 103.476562 103.445312 L 0.253906 103.445312 Z M 0.253906 0.226562 " clip-rule="nonzero"/></clipPath><clipPath id="b82e4630cc"><path d="M 51.867188 0.226562 C 23.363281 0.226562 0.253906 23.332031 0.253906 51.835938 C 0.253906 80.339844 23.363281 103.445312 51.867188 103.445312 C 80.371094 103.445312 103.476562 80.339844 103.476562 51.835938 C 103.476562 23.332031 80.371094 0.226562 51.867188 0.226562 Z M 51.867188 0.226562 " clip-rule="nonzero"/></clipPath><clipPath id="0c69d41ed3"><rect x="0" width="104" y="0" height="104"/></clipPath><clipPath id="79b0099edf"><path d="M 233.910156 678.839844 L 299.910156 678.839844 L 299.910156 772.589844 L 233.910156 772.589844 Z M 233.910156 678.839844 " clip-rule="nonzero"/></clipPath></defs><g fill="#274069" fill-opacity="1"><g transform="translate(193.230982, 792.64328)"><g><path d="M 26.53125 -123.59375 C 38.382812 -133.175781 54.09375 -137.96875 73.65625 -137.96875 C 93.21875 -137.96875 108.925781 -133.140625 120.78125 -123.484375 C 132.632812 -113.835938 138.5625 -100.269531 138.5625 -82.78125 L 138.5625 -52.46875 C 138.5625 -37.175781 133.960938 -24.804688 124.765625 -15.359375 L 139.921875 6.609375 C 140.304688 7.378906 140.5 8.1875 140.5 9.03125 C 140.5 9.875 140.140625 10.679688 139.421875 11.453125 C 138.710938 12.234375 137.773438 12.625 136.609375 12.625 L 98.53125 12.625 C 95.289062 12.625 92.566406 11.132812 90.359375 8.15625 L 84.921875 1.359375 C 81.160156 1.742188 77.40625 1.9375 73.65625 1.9375 C 53.832031 1.9375 38.054688 -2.691406 26.328125 -11.953125 C 14.609375 -21.210938 8.75 -34.71875 8.75 -52.46875 L 8.75 -82.78125 C 8.75 -100.40625 14.675781 -114.007812 26.53125 -123.59375 Z M 63.15625 -39.828125 C 65.75 -37.242188 69.242188 -35.953125 73.640625 -35.953125 C 78.046875 -35.953125 81.546875 -37.242188 84.140625 -39.828125 C 86.734375 -42.421875 88.03125 -46.375 88.03125 -51.6875 L 88.03125 -84.34375 C 88.03125 -89.519531 86.734375 -93.4375 84.140625 -96.09375 C 81.546875 -98.75 78.046875 -100.078125 73.640625 -100.078125 C 69.242188 -100.078125 65.75 -98.75 63.15625 -96.09375 C 60.5625 -93.4375 59.265625 -89.519531 59.265625 -84.34375 L 59.265625 -51.6875 C 59.265625 -46.375 60.5625 -42.421875 63.15625 -39.828125 Z M 63.15625 -39.828125 "/></g></g></g><g fill="#274069" fill-opacity="1"><g transform="translate(333.538728, 792.64328)"><g><path d="M 93.28125 -136.03125 L 131.359375 -136.03125 C 132.785156 -136.03125 134.015625 -135.507812 135.046875 -134.46875 C 136.085938 -133.4375 136.609375 -132.207031 136.609375 -130.78125 L 136.609375 -52.65625 C 136.609375 -34.519531 130.972656 -20.882812 119.703125 -11.75 C 108.429688 -2.625 93.113281 1.9375 73.75 1.9375 C 54.382812 1.9375 39.03125 -2.59375 27.6875 -11.65625 C 16.351562 -20.726562 10.6875 -34.394531 10.6875 -52.65625 L 10.6875 -130.78125 C 10.6875 -132.207031 11.203125 -133.4375 12.234375 -134.46875 C 13.273438 -135.507812 14.507812 -136.03125 15.9375 -136.03125 L 54.015625 -136.03125 C 55.441406 -136.03125 56.671875 -135.507812 57.703125 -134.46875 C 58.742188 -133.4375 59.265625 -132.207031 59.265625 -130.78125 L 59.265625 -52.078125 C 59.265625 -42.097656 64.054688 -37.109375 73.640625 -37.109375 C 83.234375 -37.109375 88.03125 -42.097656 88.03125 -52.078125 L 88.03125 -130.78125 C 88.03125 -132.207031 88.546875 -133.4375 89.578125 -134.46875 C 90.617188 -135.507812 91.851562 -136.03125 93.28125 -136.03125 Z M 93.28125 -136.03125 "/></g></g></g><g fill="#274069" fill-opacity="1"><g transform="translate(471.708831, 792.64328)"><g><path d="M 55.1875 -136.03125 L 97.359375 -136.03125 C 102.023438 -136.03125 104.941406 -133.890625 106.109375 -129.609375 L 149.4375 -5.640625 C 149.5625 -5.242188 149.625 -4.625 149.625 -3.78125 C 149.625 -2.945312 149.203125 -2.109375 148.359375 -1.265625 C 147.523438 -0.421875 146.523438 0 145.359375 0 L 109.40625 0 C 105.519531 0 102.992188 -1.617188 101.828125 -4.859375 L 97.15625 -17.6875 L 55.390625 -17.6875 L 50.71875 -4.859375 C 49.550781 -1.617188 47.023438 0 43.140625 0 L 7.1875 0 C 6.019531 0 5.015625 -0.421875 4.171875 -1.265625 C 3.335938 -2.109375 2.921875 -2.945312 2.921875 -3.78125 C 2.921875 -4.625 2.984375 -5.242188 3.109375 -5.640625 L 46.4375 -129.609375 C 47.601562 -133.890625 50.519531 -136.03125 55.1875 -136.03125 Z M 65.296875 -55.578125 L 87.25 -55.578125 L 76.171875 -91.71875 Z M 65.296875 -55.578125 "/></g></g></g><g fill="#274069" fill-opacity="1"><g transform="translate(615.125904, 792.64328)"><g><path d="M 17.875 -136.03125 L 73.84375 -136.03125 C 92.757812 -136.03125 108.335938 -131.332031 120.578125 -121.9375 C 132.816406 -112.550781 138.9375 -99.4375 138.9375 -82.59375 L 138.9375 -53.640625 C 138.9375 -36.015625 132.976562 -22.664062 121.0625 -13.59375 C 109.144531 -4.53125 93.46875 0 74.03125 0 L 17.875 0 C 16.445312 0 15.210938 -0.515625 14.171875 -1.546875 C 13.140625 -2.585938 12.625 -3.820312 12.625 -5.25 L 12.625 -130.78125 C 12.625 -132.207031 13.140625 -133.4375 14.171875 -134.46875 C 15.210938 -135.507812 16.445312 -136.03125 17.875 -136.03125 Z M 61.21875 -98.140625 L 61.21875 -37.890625 L 73.84375 -37.890625 C 78.25 -37.890625 81.78125 -39.21875 84.4375 -41.875 C 87.09375 -44.53125 88.421875 -48.453125 88.421875 -53.640625 L 88.421875 -82.59375 C 88.421875 -92.957031 83.5625 -98.140625 73.84375 -98.140625 Z M 61.21875 -98.140625 "/></g></g></g><g fill="#274069" fill-opacity="1"><g transform="translate(753.684687, 792.64328)"><g><path d="M 137.78125 -6.40625 C 138.164062 -5.632812 138.359375 -4.796875 138.359375 -3.890625 C 138.359375 -2.984375 137.9375 -2.109375 137.09375 -1.265625 C 136.25 -0.421875 135.25 0 134.09375 0 L 94.25 0 C 90.226562 0 87.441406 -1.75 85.890625 -5.25 L 69.1875 -42.359375 L 61.21875 -42.359375 L 61.21875 -5.25 C 61.21875 -3.820312 60.695312 -2.585938 59.65625 -1.546875 C 58.625 -0.515625 57.394531 0 55.96875 0 L 17.875 0 C 16.445312 0 15.210938 -0.515625 14.171875 -1.546875 C 13.140625 -2.585938 12.625 -3.820312 12.625 -5.25 L 12.625 -130.78125 C 12.625 -132.207031 13.140625 -133.4375 14.171875 -134.46875 C 15.210938 -135.507812 16.445312 -136.03125 17.875 -136.03125 L 75.40625 -136.03125 C 94.050781 -136.03125 108.617188 -131.851562 119.109375 -123.5 C 129.609375 -115.144531 134.859375 -103.160156 134.859375 -87.546875 C 134.859375 -71.929688 127.863281 -59.65625 113.875 -50.71875 Z M 61.21875 -99.890625 L 61.21875 -79.28125 L 75.40625 -79.28125 C 78.25 -79.28125 80.445312 -80.21875 82 -82.09375 C 83.5625 -83.976562 84.34375 -86.34375 84.34375 -89.1875 C 84.34375 -92.039062 83.597656 -94.535156 82.109375 -96.671875 C 80.617188 -98.816406 78.382812 -99.890625 75.40625 -99.890625 Z M 61.21875 -99.890625 "/></g></g></g><g fill="#274069" fill-opacity="1"><g transform="translate(888.745462, 792.64328)"><g><path d="M 55.1875 -136.03125 L 97.359375 -136.03125 C 102.023438 -136.03125 104.941406 -133.890625 106.109375 -129.609375 L 149.4375 -5.640625 C 149.5625 -5.242188 149.625 -4.625 149.625 -3.78125 C 149.625 -2.945312 149.203125 -2.109375 148.359375 -1.265625 C 147.523438 -0.421875 146.523438 0 145.359375 0 L 109.40625 0 C 105.519531 0 102.992188 -1.617188 101.828125 -4.859375 L 97.15625 -17.6875 L 55.390625 -17.6875 L 50.71875 -4.859375 C 49.550781 -1.617188 47.023438 0 43.140625 0 L 7.1875 0 C 6.019531 0 5.015625 -0.421875 4.171875 -1.265625 C 3.335938 -2.109375 2.921875 -2.945312 2.921875 -3.78125 C 2.921875 -4.625 2.984375 -5.242188 3.109375 -5.640625 L 46.4375 -129.609375 C 47.601562 -133.890625 50.519531 -136.03125 55.1875 -136.03125 Z M 65.296875 -55.578125 L 87.25 -55.578125 L 76.171875 -91.71875 Z M 65.296875 -55.578125 "/></g></g></g><g fill="#274069" fill-opacity="1"><g transform="translate(1032.16258, 792.64328)"><g><path d="M 94.640625 -136.03125 L 129.8125 -136.03125 C 131.238281 -136.03125 132.46875 -135.507812 133.5 -134.46875 C 134.539062 -133.4375 135.0625 -132.207031 135.0625 -130.78125 L 135.0625 -5.25 C 135.0625 -3.820312 134.539062 -2.585938 133.5 -1.546875 C 132.46875 -0.515625 131.238281 0 129.8125 0 L 99.109375 0 C 95.742188 0 93.085938 -1.488281 91.140625 -4.46875 L 58.296875 -54.015625 L 58.296875 -5.25 C 58.296875 -3.820312 57.773438 -2.585938 56.734375 -1.546875 C 55.703125 -0.515625 54.472656 0 53.046875 0 L 17.875 0 C 16.445312 0 15.210938 -0.515625 14.171875 -1.546875 C 13.140625 -2.585938 12.625 -3.820312 12.625 -5.25 L 12.625 -130.78125 C 12.625 -132.207031 13.140625 -133.4375 14.171875 -134.46875 C 15.210938 -135.507812 16.445312 -136.03125 17.875 -136.03125 L 48.578125 -136.03125 C 52.203125 -136.03125 54.859375 -134.539062 56.546875 -131.5625 L 89.390625 -77.734375 L 89.390625 -130.78125 C 89.390625 -132.207031 89.90625 -133.4375 90.9375 -134.46875 C 91.976562 -135.507812 93.210938 -136.03125 94.640625 -136.03125 Z M 94.640625 -136.03125 "/></g></g></g><g fill="#274069" fill-opacity="1"><g transform="translate(1170.721318, 792.64328)"><g><path d="M 11.078125 -136.03125 L 124.953125 -136.03125 C 126.378906 -136.03125 127.609375 -135.507812 128.640625 -134.46875 C 129.679688 -133.4375 130.203125 -132.207031 130.203125 -130.78125 L 130.203125 -99.5 C 130.203125 -98.070312 129.679688 -96.835938 128.640625 -95.796875 C 127.609375 -94.765625 126.378906 -94.25 124.953125 -94.25 L 92.6875 -94.25 L 92.6875 -5.25 C 92.6875 -3.820312 92.164062 -2.585938 91.125 -1.546875 C 90.09375 -0.515625 88.867188 0 87.453125 0 L 48.578125 0 C 47.148438 0 45.914062 -0.515625 44.875 -1.546875 C 43.84375 -2.585938 43.328125 -3.820312 43.328125 -5.25 L 43.328125 -94.25 L 11.078125 -94.25 C 9.648438 -94.25 8.414062 -94.765625 7.375 -95.796875 C 6.34375 -96.835938 5.828125 -98.070312 5.828125 -99.5 L 5.828125 -130.78125 C 5.828125 -132.207031 6.34375 -133.4375 7.375 -134.46875 C 8.414062 -135.507812 9.648438 -136.03125 11.078125 -136.03125 Z M 11.078125 -136.03125 "/></g></g></g><g clip-path="url(#7720ca9c2f)"><g clip-path="url(#f415ccdd2e)"><g transform="matrix(1, 0, 0, 1, 215, 674)"><g clip-path="url(#0c69d41ed3)"><g clip-path="url(#45f2e1896d)"><g clip-path="url(#b82e4630cc)"><path fill="#274069" d="M 0.253906 0.226562 L 103.476562 0.226562 L 103.476562 103.445312 L 0.253906 103.445312 Z M 0.253906 0.226562 " fill-opacity="1" fill-rule="nonzero"/></g></g></g></g></g></g><g clip-path="url(#79b0099edf)"><path fill="#ffffff" d="M 269.035156 695.949219 C 278.714844 712.738281 295.976562 723.957031 295.976562 741.78125 C 295.976562 745.003906 295.511719 748.121094 294.648438 751.0625 C 294.667969 750.859375 294.691406 750.660156 294.707031 750.457031 C 296.355469 730.539062 275.695312 717.105469 269.035156 695.949219 Z M 267.160156 678.859375 C 257.707031 696.621094 239.257812 707.984375 239.257812 726.414062 C 239.257812 741.253906 248.699219 755.320312 262.054688 760.003906 C 247.601562 757.3125 236.46875 745.1875 235.28125 730.261719 C 234.410156 733.601562 233.910156 736.832031 233.910156 739.863281 C 233.910156 758.0625 248.664062 772.816406 266.863281 772.816406 C 285.0625 772.816406 299.816406 758.0625 299.816406 739.863281 C 299.816406 717.191406 271.894531 705.207031 267.160156 678.859375 " fill-opacity="1" fill-rule="nonzero"/></g></svg>